# xmcd
#
# Track frame offsets: 
#        150
#        15455
#        33500
#        47223
#        62430
#        77393
#        90744
#        105605
#        119540
#        133953
#        146185
#        158744
#
# Disc length: 2357 seconds
#
# Revision: 2
# Processed by: cddbd v1.5.2PL0 Copyright (c) Steve Scherf et al.
# Submitted via: ExactAudioCopy v0.99pb5
#
DISCID=9d09330c
DTITLE=Anne Nørdsti - Livet er nå
DYEAR=2009
DGENRE=Country/pop
TTITLE0=Bygdeorginal
TTITLE1=Ingen ser meg som du gjør
TTITLE2=Bjørnen sover ei
TTITLE3=Et gult fotografi
TTITLE4=Jeg kan vente
TTITLE5=Rock´n roll på min radio
TTITLE6=Alt du vil ha
TTITLE7=Hvis det varer over helga
TTITLE8=Bukkene Bruse
TTITLE9=Benny Bugge Berntsen
TTITLE10=Midtlivskrisa
TTITLE11=Ikkje gje opp håpet
EXTD=
EXTT0=
EXTT1=
EXTT2=
EXTT3=
EXTT4=
EXTT5=
EXTT6=
EXTT7=
EXTT8=
EXTT9=
EXTT10=
EXTT11=
PLAYORDER=
